<svg xmlns="http://www.w3.org/2000/svg" width="1024" height="1024" shape-rendering="geometricPrecision" text-rendering="geometricPrecision" image-rendering="optimizeQuality" fill-rule="evenodd" clip-rule="evenodd"><path fill="#edac6c" d="M491.5-.5h42c73.299 9.384 128.799 45.718 166.5 109 12.466 22.899 20.633 47.233 24.5 73 25.364-.421 50.697.079 76 1.5 44.365 6.912 79.532 28.412 105.5 64.5 7.886 12.657 13.22 26.324 16 41a672745.679 672745.679 0 0175 573c4.94 61.276-18.223 108.442-69.5 141.5-19.431 10.98-40.098 17.81-62 20.5h-707c-49.878-6.68-88.045-31.348-114.5-74-14.776-27.545-20.442-56.878-17-88a672496.715 672496.715 0 0175-573c9.147-38.469 30.98-67.303 65.5-86.5 17.508-9.725 36.174-16.058 56-19a1072.03 1072.03 0 0177-1.5c10.63-64.137 42.964-113.97 97-149.5 29.038-17.734 60.371-28.567 94-32.5zm18 73c60.579 2.185 104.413 30.185 131.5 84a533.328 533.328 0 018.5 24.5c-91.333.667-182.667.667-274 0 20.39-66.23 65.057-102.396 134-108.5zm-273 183h62c-.167 46.335 0 92.668.5 139 5.101 18.216 17.101 27.549 36 28 18.899-.451 30.899-9.784 36-28 .5-46.332.667-92.665.5-139h282c-.167 46.335 0 92.668.5 139 5.101 18.216 17.101 27.549 36 28 18.899-.451 30.899-9.784 36-28 .5-46.332.667-92.665.5-139 20.336-.167 40.669 0 61 .5 23.541 3.009 42.374 13.843 56.5 32.5a54.224 54.224 0 014 9 132649.296 132649.296 0 0175 569c3.024 46.12-18.143 73.62-63.5 82.5a30771.924 30771.924 0 01-347.5 1.5c-115.848.154-231.681-.346-347.5-1.5-45.357-8.88-66.524-36.38-63.5-82.5a653592.512 653592.512 0 0174-565c4.013-13.347 11.846-23.847 23.5-31.5 11.825-7.326 24.491-12.159 38-14.5z" opacity=".989"/></svg>