<svg xmlns="http://www.w3.org/2000/svg" width="512" height="512" shape-rendering="geometricPrecision" text-rendering="geometricPrecision" image-rendering="optimizeQuality" fill-rule="evenodd" clip-rule="evenodd"><path d="M511.5 146.5v36c-6.027 56.07-24.527 107.736-55.5 155-35.334 51.336-78.168 95.503-128.5 132.5-40.001 23.554-81.668 26.888-125 10a169.921 169.921 0 01-30-18C124.018 424.523 82.852 380.356 49 329.5c-27.573-43.554-44.073-90.888-49.5-142v-41C6.34 98.64 30.34 62.14 71.5 37c56.863-27.018 110.196-21.351 160 17 8.569 7.9 16.403 16.4 23.5 25.5 36.538-47.003 84.372-65.837 143.5-56.5 65.057 16.22 102.723 57.386 113 123.5zm-372-86c34.55 2.755 62.384 17.755 83.5 45 8.348 12.716 12.681 26.716 13 42 6.829 13.221 16.995 16.721 30.5 10.5 3.89-2.596 6.723-6.096 8.5-10.5 1.864-31.568 16.364-55.402 43.5-71.5 32.392-17.73 65.392-19.064 99-4 40.04 24.92 57.54 61.086 52.5 108.5-6.021 54.685-25.354 104.018-58 148-30.167 40.833-65.667 76.333-106.5 106.5-33.333 19.333-66.667 19.333-100 0-37.72-28.052-71.22-60.552-100.5-97.5-28.43-35.863-48.096-76.197-59-121-6.368-27.23-7.034-54.563-2-82 15.178-46.363 47.011-71.03 95.5-74z" opacity=".971"/></svg>