<svg xmlns="http://www.w3.org/2000/svg" width="512" height="512" shape-rendering="geometricPrecision" text-rendering="geometricPrecision" image-rendering="optimizeQuality" fill-rule="evenodd" clip-rule="evenodd"><path d="M215.5 40.5c67.25-3.942 122.75 19.392 166.5 70 44.733 58.788 54.733 123.121 30 193-7.076 17.707-16.576 33.874-28.5 48.5l80.5 80.5c7.845 11.783 6.678 22.617-3.5 32.5-10.12 5.158-19.787 4.491-29-2L352 383.5c-50.37 38.542-106.537 50.376-168.5 35.5C115.209 398.445 70.043 354.279 48 286.5c-18.941-77.43.225-143.597 57.5-198.5 31.782-27.056 68.449-42.889 110-47.5zm11 43c59.23.155 104.397 25.155 135.5 75 25.249 47.982 25.916 96.315 2 145-32.662 54.254-80.828 80.087-144.5 77.5-65.171-8.845-108.338-44.345-129.5-106.5-15.471-63.915 1.695-117.081 51.5-159.5 25.253-18.917 53.587-29.417 85-31.5z" opacity=".972"/></svg>