<svg xmlns="http://www.w3.org/2000/svg" width="448" height="376" shape-rendering="geometricPrecision" text-rendering="geometricPrecision" image-rendering="optimizeQuality" fill-rule="evenodd" clip-rule="evenodd"><path fill="#edac6c" d="M421.5-.5h4c10.615 1.945 17.948 7.945 22 18v15a94246.598 94246.598 0 00-73.5 330c-3.507 7.698-9.34 12.032-17.5 13h-3c-4.273-.965-8.273-2.799-12-5.5L240 292.5a2294.963 2294.963 0 00-57.5 56.5c-8.659 3.51-13.325.677-14-8.5a7968.242 7968.242 0 017.5-95l185-171c.833-3.167-.333-4.333-3.5-3.5l-245 149.5A6881.57 6881.57 0 014.5 183c-2.05-1.965-3.717-4.132-5-6.5v-11c2.215-4.707 5.882-7.873 11-9.5A105444.9 105444.9 0 01421.5-.5z" opacity=".985"/></svg>