<svg xmlns="http://www.w3.org/2000/svg" width="512" height="512" shape-rendering="geometricPrecision" text-rendering="geometricPrecision" image-rendering="optimizeQuality" fill-rule="evenodd" clip-rule="evenodd"><path fill="#edac6c" d="M243.5 17.5c48.564-2.808 85.064 16.525 109.5 58 21.421 46.976 15.421 89.976-18 129-39.204 35.561-83.038 42.394-131.5 20.5-41.951-24.728-61.118-61.561-57.5-110.5 9.806-55.307 42.306-87.64 97.5-97zm8 37c46.346 2.846 72.012 27.346 77 73.5-4.9 43.734-29.234 67.9-73 72.5-44-4.667-68.333-29-73-73 4.257-42.253 27.257-66.586 69-73z" opacity=".969"/><path fill="#edac6c" d="M188.5 273.5c47.026-.46 94.026.04 141 1.5 58.724 12.391 94.558 47.891 107.5 106.5 7.952 48.601-9.882 83.767-53.5 105.5a89.526 89.526 0 01-23 6c-70 .667-140 .667-210 0-40.803-6.972-66.303-30.472-76.5-70.5-5.87-56.753 14.964-100.587 62.5-131.5 16.413-8.971 33.746-14.804 52-17.5zm9 37c38.668-.167 77.335 0 116 .5 44.676 5.088 73.176 29.255 85.5 72.5 6.992 27.37-.841 49.203-23.5 65.5-7.466 4.155-15.466 6.489-24 7-64 .667-128 .667-192 0-30.464-4.299-47.131-21.799-50-52.5 2.572-41.05 22.572-69.883 60-86.5 9.251-3.146 18.584-5.313 28-6.5z" opacity=".976"/></svg>