<svg xmlns="http://www.w3.org/2000/svg" width="512" height="512" shape-rendering="geometricPrecision" text-rendering="geometricPrecision" image-rendering="optimizeQuality" fill-rule="evenodd" clip-rule="evenodd"><path d="M232.5-.5h45c85.376 9.923 151.21 50.923 197.5 123 20.988 35.645 33.155 73.978 36.5 115v32c-10.329 97.521-58.995 168.687-146 213.5-75.862 33.344-151.362 32.51-226.5-2.5a9490.923 9490.923 0 00-134.5 31h-5v-2a6030.478 6030.478 0 0030-135 447.47 447.47 0 01-20.5-52c-4.26-15.586-7.426-31.252-9.5-47v-45C9.318 147.664 48.984 83.498 118.5 38c35.087-21.723 73.087-34.556 114-38.5zm20 40c84.623 2.58 148.456 39.914 191.5 112 35.613 68.832 35.28 137.498-1 206-39.432 65.013-97.266 101.179-173.5 108.5-44.163 2.5-85.33-7.333-123.5-29.5a1347.948 1347.948 0 01-92.5 20 8599.757 8599.757 0 0020-89c-15.822-26.658-26.322-55.324-31.5-86-7.936-86.607 23.23-155.107 93.5-205.5 35.719-22.964 74.719-35.13 117-36.5z" opacity=".971"/><path d="M172.5 140.5c7.204-.555 14.204.278 21 2.5l3.5 3.5a1455.732 1455.732 0 0120 47c1.405 3.572 1.738 7.239 1 11-3.753 8.761-9.42 16.094-17 22l-2.5 5c18.659 35.489 46.659 60.656 84 75.5 2.803.755 5.47.422 8-1a725.992 725.992 0 0023-28 9.62 9.62 0 014.5-1.5 332.05 332.05 0 0158 28c2.746 26.58-8.421 44.414-33.5 53.5-17.832 4.992-35.499 4.325-53-2-39.688-11.048-73.188-31.882-100.5-62.5a450.624 450.624 0 01-37-50c-13.37-21.169-17.036-43.835-11-68 4.22-11.945 11.053-22.111 20.5-30.5 3.553-2.121 7.22-3.621 11-4.5z" opacity=".973"/></svg>