<svg xmlns="http://www.w3.org/2000/svg" width="512" height="512" shape-rendering="geometricPrecision" text-rendering="geometricPrecision" image-rendering="optimizeQuality" fill-rule="evenodd" clip-rule="evenodd"><path d="M217.5 95.5c19.278-.89 25.778 7.776 19.5 26L113.5 239l324 1c6.987 2.807 10.32 7.973 10 15.5.32 7.527-3.013 12.693-10 15.5l-324 1L237 389.5c3.333 6.667 3.333 13.333 0 20-6.945 6.569-14.778 7.736-23.5 3.5a12738.802 12738.802 0 00-138-131c-12.185-11.311-15.352-24.811-9.5-40.5a31.303 31.303 0 015-8L201.5 109a292.668 292.668 0 0116-13.5z" opacity=".977"/></svg>