<svg xmlns="http://www.w3.org/2000/svg" width="512" height="512" shape-rendering="geometricPrecision" text-rendering="geometricPrecision" image-rendering="optimizeQuality" fill-rule="evenodd" clip-rule="evenodd"><path fill="#e83632" d="M28.5-.5h3a35462.235 35462.235 0 00224 224 35462.235 35462.235 0 00224-224h3c9.333 10 19 19.667 29 29v3a35462.235 35462.235 0 00-224 224 35462.235 35462.235 0 00224 224v3c-10 9.333-19.667 19-29 29h-3a35462.235 35462.235 0 00-224-224 35462.235 35462.235 0 00-224 224h-3c-9.333-10-19-19.667-29-29v-3a35462.235 35462.235 0 00224-224 35462.235 35462.235 0 00-224-224v-3c10-9.333 19.667-19 29-29z" opacity=".958"/></svg>